HIERARCHY
ROOT Hips
{
	OFFSET 0.000000 0.000000 0.000000
	CHANNELS 6 Xposition Yposition Zposition Zrotation Yrotation Xrotation 
	JOINT LHipJoint
	{
		OFFSET 0.000000 0.000000 0.000000
		CHANNELS 3 Zrotation Yrotation Xrotation
		JOINT LeftUpLeg
		{
			OFFSET 1.363060 -1.794630 0.839290
			CHANNELS 3 Zrotation Yrotation Xrotation
			JOINT LeftLeg
			{
				OFFSET 2.448110 -6.726130 0.000000
				CHANNELS 3 Zrotation Yrotation Xrotation
				JOINT LeftFoot
				{
					OFFSET 2.562200 -7.039590 0.000000
					CHANNELS 3 Zrotation Yrotation Xrotation
					JOINT LeftToeBase
					{
						OFFSET 0.157640 -0.433110 2.322550
						CHANNELS 3 Zrotation Yrotation Xrotation
						End Site
						{
							OFFSET 0.000000 0.000000 0.000000
						}
					}
				}
			}
		}
	}
	JOINT RHipJoint
	{
		OFFSET 0.000000 0.000000 0.000000
		CHANNELS 3 Zrotation Yrotation Xrotation
		JOINT RightUpLeg
		{
			OFFSET -1.305520 -1.794630 0.839290
			CHANNELS 3 Zrotation Yrotation Xrotation
			JOINT RightLeg
			{
				OFFSET -2.542530 -6.985550 0.000000
				CHANNELS 3 Zrotation Yrotation Xrotation
				JOINT RightFoot
				{
					OFFSET -2.568260 -7.056230 0.000000
					CHANNELS 3 Zrotation Yrotation Xrotation
					JOINT RightToeBase
					{
						OFFSET -0.164730 -0.452590 2.363150
						CHANNELS 3 Zrotation Yrotation Xrotation
						End Site
						{
							OFFSET 0.000000 0.000000 0.000000
						}
					}
				}
			}
		}
	}
	JOINT LowerBack
	{
		OFFSET 0.000000 0.000000 0.000000
		CHANNELS 3 Zrotation Yrotation Xrotation
		JOINT Spine
		{
			OFFSET 0.028270 2.035590 -0.193380
			CHANNELS 3 Zrotation Yrotation Xrotation
			JOINT Spine1
			{
				OFFSET 0.056720 2.048850 -0.042750
				CHANNELS 3 Zrotation Yrotation Xrotation
				JOINT Neck
				{
					OFFSET 0.000000 0.000000 0.000000
					CHANNELS 3 Zrotation Yrotation Xrotation
					JOINT Neck1
					{
						OFFSET -0.054170 1.746240 0.172020
						CHANNELS 3 Zrotation Yrotation Xrotation
						JOINT Head
						{
							OFFSET 0.104070 1.761360 -0.123970
							CHANNELS 3 Zrotation Yrotation Xrotation
							End Site
							{
								OFFSET 0.000000 0.000000 0.000000
							}
						}
					}
				}
				JOINT LeftShoulder
				{
					OFFSET 0.000000 0.000000 0.000000
					CHANNELS 3 Zrotation Yrotation Xrotation
					JOINT LeftArm
					{
						OFFSET 3.362410 1.200890 -0.311210
						CHANNELS 3 Zrotation Yrotation Xrotation
						JOINT LeftForeArm
						{
							OFFSET 4.983000 -0.000000 -0.000000
							CHANNELS 3 Zrotation Yrotation Xrotation
							JOINT LeftHand
							{
								OFFSET 3.483560 -0.000000 -0.000000
								CHANNELS 3 Zrotation Yrotation Xrotation
								JOINT LeftFingerBase
								{
									OFFSET 0.000000 0.000000 0.000000
									CHANNELS 3 Zrotation Yrotation Xrotation
									JOINT LeftHandIndex1
									{
										OFFSET 0.715260 -0.000000 -0.000000
										CHANNELS 3 Zrotation Yrotation Xrotation
										End Site
										{
											OFFSET 0.000000 0.000000 0.000000
										}
									}
								}
								JOINT LThumb
								{
									OFFSET 0.000000 0.000000 0.000000
									CHANNELS 3 Zrotation Yrotation Xrotation
									End Site
									{
										OFFSET 0.000000 0.000000 0.000000
									}
								}
							}
						}
					}
				}
				JOINT RightShoulder
				{
					OFFSET 0.000000 0.000000 0.000000
					CHANNELS 3 Zrotation Yrotation Xrotation
					JOINT RightArm
					{
						OFFSET -3.136600 1.374050 -0.404650
						CHANNELS 3 Zrotation Yrotation Xrotation
						JOINT RightForeArm
						{
							OFFSET -5.241900 -0.000000 -0.000000
							CHANNELS 3 Zrotation Yrotation Xrotation
							JOINT RightHand
							{
								OFFSET -3.444170 -0.000000 -0.000000
								CHANNELS 3 Zrotation Yrotation Xrotation
								JOINT RightFingerBase
								{
									OFFSET 0.000000 0.000000 0.000000
									CHANNELS 3 Zrotation Yrotation Xrotation
									JOINT RightHandIndex1
									{
										OFFSET -0.622530 -0.000000 -0.000000
										CHANNELS 3 Zrotation Yrotation Xrotation
										End Site
										{
											OFFSET 0.000000 0.000000 0.000000
										}
									}
								}
								JOINT RThumb
								{
									OFFSET 0.000000 0.000000 0.000000
									CHANNELS 3 Zrotation Yrotation Xrotation
									End Site
									{
										OFFSET 0.000000 0.000000 0.000000
									}
								}
							}
						}
					}
				}
			}
		}
	}
}
MOTION
Frames: 7
Frame Time: 0.008333
0.407139 17.822554 16.941345 0.617341 5.578148 -0.030829 -1.316132 6.004677 5.689430 -21.743962 -6.632891 -4.698475 0.110402 5.618588 23.493433 1.189345 -3.881760 -1.203794 0.076020 1.775606 4.886039 0.778621 -4.024182 2.885143 16.918833 5.911345 -34.413000 -4.698953 -12.933053 41.094332 2.587876 -10.553449 4.610474 -0.021902 0.955636 -2.626813 -3.060905 -1.732133 5.800921 3.217462 -2.343089 5.332308 3.415548 -1.255103 -7.620961 -5.630242 -4.133266 -14.801712 4.199418 -4.784456 17.917916 0.201531 -1.921838 8.771279 -7.130126 2.490105 -1.147577 -77.096728 -4.950654 29.541234 13.641425 -22.903118 -2.868549 -0.454905 -0.746631 -8.377260 31.972621 18.852949 12.033829 -7.125000 0.000000 0.000000 4.390329 52.736550 0.837195 11.252844 -2.042589 -2.572947 75.180411 -1.030981 5.546007 -9.843482 21.147554 -2.182344 1.041784 -0.503055 7.302306 -18.286666 22.647636 -7.789071 7.125000 0.000000 0.000000 6.005012 -5.987097 5.376102
0.405151 17.832099 17.041844 0.778858 5.702467 0.020598 -1.346715 6.029890 5.744985 -21.848159 -6.606078 -4.214033 0.052503 5.486474 23.155626 1.166966 -3.805823 -1.252934 0.087059 1.901819 5.234518 0.863990 -4.002692 2.837198 16.557072 6.067963 -34.282707 -4.234072 -12.487090 39.246074 2.811311 -11.277730 5.098933 -0.021105 0.938508 -2.579640 -3.232882 -1.766382 5.753621 3.181824 -2.400078 5.351062 3.486406 -1.287371 -7.579768 -5.683661 -4.156719 -14.898031 4.285835 -4.806154 17.978106 0.234194 -1.924114 8.808437 -7.125025 2.487416 -1.146489 -76.967639 -5.189064 29.773023 13.787409 -23.116829 -2.929404 -0.451878 -0.748347 -8.569165 32.054468 18.894956 12.094887 -7.125000 0.000000 0.000000 4.471588 52.801249 0.859786 11.252729 -2.041816 -2.574385 75.226648 -1.119004 5.348618 -9.822009 21.112520 -2.171443 1.045349 -0.509239 7.472437 -18.419575 22.717743 -7.871012 7.125000 0.000000 0.000000 5.924436 -5.893092 5.313906
0.401939 17.834049 17.138968 0.951586 5.891436 0.064510 -1.376405 6.052219 5.795907 -21.947191 -6.591700 -3.742381 0.000953 5.365392 22.849147 1.162779 -3.797561 -1.317687 0.089435 1.929271 5.310297 0.956598 -3.984950 2.788795 16.167941 6.221353 -34.095977 -3.781434 -12.012966 37.364742 3.053731 -12.060747 5.598737 -0.027957 1.067936 -2.935918 -3.436664 -1.814414 5.820609 3.151933 -2.482856 5.292116 3.584959 -1.327329 -7.651577 -5.719336 -4.172667 -14.866732 4.322090 -4.828696 18.001286 0.249826 -1.932856 8.810647 -7.120666 2.481945 -1.142019 -76.859200 -5.373892 29.937433 13.864515 -23.230171 -2.962054 -0.451411 -0.747634 -8.617160 32.122151 18.855853 12.102275 -7.125000 0.000000 0.000000 4.548071 52.769597 0.870882 11.255082 -2.047914 -2.581573 75.249890 -1.292096 5.231845 -9.807324 21.095288 -2.163105 1.047386 -0.521018 7.535776 -18.436413 22.948299 -7.956208 7.125000 0.000000 0.000000 5.931464 -5.643531 5.348907
0.398302 17.833367 17.234921 1.128200 6.102808 0.105818 -1.405784 6.073547 5.845225 -22.044433 -6.581630 -3.275161 -0.048397 5.248132 22.553523 1.164897 -3.812752 -1.387850 0.088809 1.922500 5.291575 1.051714 -3.968507 2.740233 15.769326 6.373624 -33.889690 -3.333038 -11.529084 35.471949 3.302731 -12.864118 6.102473 -0.037460 1.248150 -3.432005 -3.651466 -1.867221 5.927201 3.124032 -2.574570 5.206245 3.693110 -1.369953 -7.762544 -5.748861 -4.186015 -14.791210 4.340962 -4.851531 18.011642 0.259557 -1.943838 8.800746 -7.116564 2.475510 -1.136376 -76.757915 -5.540153 30.078495 13.917754 -23.308732 -2.984931 -0.451831 -0.746080 -8.615285 32.184925 18.788643 12.091065 -7.125000 0.000000 0.000000 4.622900 52.704556 0.877995 11.258290 -2.056394 -2.590754 75.265163 -1.494668 5.143008 -9.794991 21.084224 -2.155657 1.048895 -0.534736 7.562107 -18.413030 23.234457 -8.042531 7.125000 0.000000 0.000000 5.968850 -5.340063 5.417590
0.394219 17.820147 17.325949 1.149698 6.348526 0.272369 -1.442667 6.083738 5.880374 -21.942730 -6.631106 -3.065856 -0.098931 5.156601 22.290766 1.210241 -4.011331 -1.289572 0.086165 1.893077 5.210339 1.161661 -3.945113 2.692103 15.534930 6.539852 -33.718461 -2.905020 -11.006484 33.570801 3.533359 -13.603505 6.576083 -0.041805 1.317968 -3.624153 -3.705720 -1.950778 5.835476 3.133184 -2.684024 5.179323 3.733046 -1.428093 -7.713953 -5.646094 -4.182937 -14.764285 4.264143 -4.864154 17.921794 0.219164 -1.953980 8.767072 -7.112500 2.461078 -1.134155 -76.619378 -5.867757 30.184167 14.082452 -23.541958 -3.051379 -0.435111 -0.761802 -8.936206 31.894641 19.562576 12.401231 -7.125000 0.000000 0.000000 4.196209 53.534905 0.875072 11.255235 -2.063218 -2.598304 75.327097 -1.584744 5.194746 -9.808642 21.107394 -2.157827 1.048810 -0.545626 7.557170 -18.399403 23.482115 -8.118762 7.125000 0.000000 0.000000 5.998779 -5.077019 5.475172
0.389624 17.810430 17.417318 1.117019 6.554869 0.448330 -1.480142 6.093969 5.915684 -21.782040 -6.650750 -2.908863 -0.147471 5.073033 22.041412 1.242091 -4.147963 -1.190762 0.074074 1.696591 4.669085 1.275955 -3.921305 2.641489 15.334228 6.793331 -33.537620 -2.482946 -10.471641 31.670130 3.762406 -14.325078 6.994397 -0.039990 1.255900 -3.453462 -3.717856 -2.026638 5.720667 3.172123 -2.777843 5.150982 3.761706 -1.479689 -7.654964 -5.569438 -4.174270 -14.738295 4.207520 -4.865556 17.837077 0.190033 -1.958298 8.736079 -7.108724 2.447569 -1.131843 -76.490090 -6.191617 30.275821 14.271635 -23.808435 -3.128176 -0.416033 -0.779239 -9.318390 31.563802 20.421782 12.732640 -7.125000 0.000000 0.000000 3.698607 54.450267 0.852686 11.250368 -2.068481 -2.606069 75.383053 -1.685844 5.276558 -9.841802 21.162015 -2.169611 1.048350 -0.549970 7.514313 -18.382425 23.618491 -8.155956 7.125000 0.000000 0.000000 6.021644 -4.934467 5.512470
0.383318 17.813213 17.510090 0.908679 6.626110 0.649834 -1.519246 6.104895 5.952253 -21.431616 -6.566337 -2.916019 -0.189199 5.015139 21.835799 1.226052 -4.065497 -1.098666 0.030087 0.935389 2.572864 1.404223 -3.896441 2.582441 15.239348 7.341631 -33.322445 -2.079976 -9.897289 29.771495 3.987026 -14.989545 7.226944 -0.017569 0.752700 -2.069164 -3.595452 -2.074874 5.537697 3.310077 -2.817807 5.114854 3.755623 -1.508338 -7.568823 -5.587915 -4.147501 -14.713010 4.224140 -4.829472 17.774800 0.201585 -1.942934 8.715366 -7.105926 2.437589 -1.129049 -76.394014 -6.494644 30.321780 14.538118 -24.179714 -3.237817 -0.389832 -0.801608 -9.891758 31.113450 21.527297 13.119756 -7.125000 0.000000 0.000000 2.986172 55.608315 0.764884 11.239675 -2.068538 -2.614648 75.416402 -1.829975 5.453132 -9.939733 21.321433 -2.213467 1.046695 -0.532288 7.344599 -18.353601 23.379892 -8.061438 7.125000 0.000000 0.000000 6.020962 -5.197989 5.481628
